:SAMPLES-PER-SECOND 30
:FULLY-SPECIFIED
:DEGREES
409
root  -51.0572 24.7681 43.0334 1.45319 62.0934 -11.3521
RightUpLeg  -14.2603 -16.199 -16.4896
RightLeg  62.0857 -0.978969 -1.69098
RightFoot  -30.0719 0.565239 2.48161
RightToes  -64.8761 -0.441048 -0.408806
Spine  15.9412 1.70307 2.27987
Spine1  27.9609 8.0388 -0.00128282
HEad  14.9669 6.79758 -7.49382
LeftShoulder1  0 -2.42657e-020 -4.95415e-022
LeftArm  -14.8481 -21.6826 -84.2774
LeftForeArm  42.7995 -28.6511 -5.50754
LeftHand  -0.0913014 -6.74461 1.1806
RightShoulder  0 2.42657e-020 1.07489e-018
RightArm  -12.7595 38.0242 75.5735
RightForeArm  59.4281 30.7048 5.96142
RightHand  -4.2651 28.1272 -16.5434
LeftUpLeg  -83.9862 18.1759 -20.8462
LeftLeg  63.9755 5.70358 9.86925
LeftFoot  -18.918 -0.450635 -2.70429
LeftToes  6.59312 2.37847e-007 4.89147e-008
410
root  -48.3708 24.8974 44.4171 2.16162 64.2912 -11.5438
RightUpLeg  -5.67196 -13.3532 -16.5444
RightLeg  55.1381 -1.50604 -1.95357
RightFoot  -24.8302 0.467425 2.5007
RightToes  -71.1499 -0.501909 -0.416552
Spine  16.2316 3.1189 2.38677
Spine1  28.3861 12.0862 -0.867242
HEad  16.0327 5.40735 -5.56767
LeftShoulder1  0 -2.42657e-020 -4.95415e-022
LeftArm  -12.1858 -22.2316 -87.2736
LeftForeArm  43.243 -28.4058 -5.45056
LeftHand  -0.109102 -7.17952 1.37031
RightShoulder  0 2.42657e-020 1.07489e-018
RightArm  -40.8502 45.1223 76.6111
RightForeArm  73.5722 11.3557 1.95015
RightHand  -1.99025 23.6319 -9.12513
LeftUpLeg  -83.2227 20.1525 -30.2968
LeftLeg  61.9338 6.3269 10.0872
LeftFoot  -20.0496 -0.476908 -2.69737
LeftToes  10.1461 2.37847e-007 4.89147e-008
411
root  -45.3515 25.2153 45.5661 2.64651 66.4845 -11.898
RightUpLeg  1.33128 -7.25144 -15.3023
RightLeg  49.4034 -0.973757 -1.04276
RightFoot  -11.8651 0.138588 1.71126
RightToes  -87.3468 -0.659465 -0.405581
Spine  15.1524 3.41654 2.19403
Spine1  26.2566 12.267 -0.503876
HEad  19.3063 3.97404 -3.94944
LeftShoulder1  0 -2.42657e-020 -4.95415e-022
LeftArm  -11.6932 -18.7587 -89.1226
LeftForeArm  43.1903 -27.6947 -5.28878
LeftHand  -0.0756712 -6.89616 0.886785
RightShoulder  0 2.42657e-020 1.07489e-018
RightArm  -65.4003 41.3102 72.8244
RightForeArm  66.1597 2.2791 0.351819
RightHand  -1.62629 16.6517 -10.7128
LeftUpLeg  -76.7173 19.1683 -31.5529
LeftLeg  62.8703 5.27423 8.75057
LeftFoot  -20.123 -0.372375 -2.09845
LeftToes  12.5124 2.37847e-007 4.89147e-008
412
root  -42.3337 25.5751 46.5598 3.19696 69.0176 -13.0885
RightUpLeg  3.30199 1.05212 -12.2813
RightLeg  49.5725 2.21493 2.23822
RightFoot  4.58432 -0.0513127 1.65919
RightToes  -87.7428 -0.663251 -0.404757
Spine  13.5316 3.05889 2.3398
Spine1  23.542 10.5951 0.652097
HEad  19.1684 2.3469 -2.08048
LeftShoulder1  0 -2.42657e-020 -4.95415e-022
LeftArm  -11.5454 -14.6859 -90.0293
LeftForeArm  41.7192 -27.9137 -5.3404
LeftHand  -0.010684 -6.50055 -0.182014
RightShoulder  0 2.42657e-020 1.07489e-018
RightArm  -73.4177 32.9935 73.1557
RightForeArm  55.5553 6.27228 1.07901
RightHand  -0.840961 18.4042 -4.81923
LeftUpLeg  -71.9953 13.4257 -27.5111
LeftLeg  65.4639 4.39281 8.11069
LeftFoot  -25.9888 -0.725239 -3.14202
LeftToes  27.9616 2.37847e-007 4.89147e-008
413
root  -39.4116 26.1375 47.5116 6.9563 73.2296 -10.6136
RightUpLeg  1.20716 8.88183 -9.22655
RightLeg  57.1407 9.00239 11.8593
RightFoot  19.5131 -1.0681 6.58316
RightToes  -57.9804 -0.375579 -0.39268
Spine  12.8782 1.80537 2.00453
Spine1  22.2071 7.34985 0.678369
HEad  15.7306 0.735726 -0.854437
LeftShoulder1  0 -2.42657e-020 -4.95415e-022
LeftArm  -10.2813 -12.8515 -88.8064
LeftForeArm  39.6189 -28.8398 -5.55516
LeftHand  -0.00267574 -6.63452 -0.32412
RightShoulder  0 2.42657e-020 1.07489e-018
RightArm  -58.2317 24.357 75.3542
RightForeArm  31.3973 16.2459 2.93882
RightHand  0.514749 21.3912 3.09581
LeftUpLeg  -67.0792 9.3064 -25.7662
LeftLeg  67.3464 4.81481 9.61008
LeftFoot  -26.4247 -0.962312 -4.09722
LeftToes  29.9584 2.37847e-007 4.89147e-008
